<svg width="375" height="230" viewBox="0 0 375 230" fill="none" xmlns="http://www.w3.org/2000/svg">
    <g filter="url(#filter0_d_11_1445)">
        <mask id="mask0_11_1445" style="mask-type:alpha" maskUnits="userSpaceOnUse" x="21" y="24" width="333" height="180">
            <rect x="21" y="24" width="333" height="180" rx="7.76676" fill="#222222"/>
        </mask>
        <g mask="url(#mask0_11_1445)">
            <g filter="url(#filter1_d_11_1445)">
                <rect x="21" y="24" width="333" height="180" rx="7.76676" fill="#242424"/>
            </g>
            <path d="M142.837 124C163.307 120.976 184.945 123.974 201.133 127.599C218.453 131.477 235.853 135.53 253.571 136.573C286.275 138.496 318.965 132.582 348.922 119.321L355.351 116.475L363.603 210.647H84L86.0746 194.88C86.3095 193.095 86.6173 191.326 87.0833 189.587C90.2544 177.753 105.398 129.531 142.837 124Z" fill="url(#paint0_linear_11_1445)" fill-opacity="0.05"/>
        </g>
        <g clip-path="url(#clip0_11_1445)">
            <path d="M51.6478 68.1506V66.5441C51.6478 65.9283 51.2748 65.5267 50.6354 65.5267C50.3158 65.5267 49.9694 65.6338 49.7297 65.9818C49.5432 65.6873 49.2768 65.5267 48.8772 65.5267C48.6108 65.5267 48.3444 65.607 48.1312 65.9015V65.5802H47.5718V68.1506H48.1312V66.7315C48.1312 66.2764 48.371 66.0622 48.744 66.0622C49.1169 66.0622 49.3034 66.3031 49.3034 66.7315V68.1506H49.8629V66.7315C49.8629 66.2764 50.1293 66.0622 50.4756 66.0622C50.8486 66.0622 51.0351 66.3031 51.0351 66.7315V68.1506H51.6478ZM59.933 65.5802H59.0272V64.8038H58.4678V65.5802H57.9616V66.0889H58.4678V67.267C58.4678 67.856 58.7075 68.2041 59.3469 68.2041C59.5867 68.2041 59.8531 68.1238 60.0396 68.0167L59.8797 67.5348C59.7199 67.6419 59.5334 67.6686 59.4002 67.6686C59.1338 67.6686 59.0272 67.508 59.0272 67.2402V66.0889H59.933V65.5802ZM64.675 65.5267C64.3553 65.5267 64.1422 65.6873 64.009 65.9015V65.5802H63.4496V68.1506H64.009V66.7047C64.009 66.2764 64.1955 66.0354 64.5418 66.0354C64.6484 66.0354 64.7816 66.0622 64.8882 66.0889L65.048 65.5534C64.9414 65.5267 64.7816 65.5267 64.675 65.5267ZM57.5087 65.7944C57.2423 65.607 56.8693 65.5267 56.4697 65.5267C55.8304 65.5267 55.4041 65.848 55.4041 66.3567C55.4041 66.7851 55.7238 67.026 56.2832 67.1064L56.5497 67.1331C56.8427 67.1867 57.0025 67.267 57.0025 67.4009C57.0025 67.5883 56.7894 67.7222 56.4164 67.7222C56.0435 67.7222 55.7504 67.5883 55.5639 67.4544L55.2975 67.8828C55.5906 68.097 55.9902 68.2041 56.3898 68.2041C57.1357 68.2041 57.562 67.856 57.562 67.3741C57.562 66.9189 57.2157 66.678 56.6829 66.5976L56.4164 66.5709C56.1767 66.5441 55.9902 66.4905 55.9902 66.3299C55.9902 66.1425 56.1767 66.0354 56.4697 66.0354C56.7894 66.0354 57.1091 66.1693 57.2689 66.2496L57.5087 65.7944ZM72.3742 65.5267C72.0545 65.5267 71.8413 65.6873 71.7081 65.9015V65.5802H71.1487V68.1506H71.7081V66.7047C71.7081 66.2764 71.8946 66.0354 72.241 66.0354C72.3475 66.0354 72.4807 66.0622 72.5873 66.0889L72.7471 65.5534C72.6406 65.5267 72.4807 65.5267 72.3742 65.5267ZM65.2345 66.8654C65.2345 67.6419 65.7673 68.2041 66.5931 68.2041C66.9661 68.2041 67.2325 68.1238 67.4989 67.9096L67.2325 67.4544C67.0194 67.6151 66.8063 67.6954 66.5665 67.6954C66.1136 67.6954 65.7939 67.3741 65.7939 66.8654C65.7939 66.3835 66.1136 66.0622 66.5665 66.0354C66.8063 66.0354 67.0194 66.1157 67.2325 66.2764L67.4989 65.8212C67.2325 65.607 66.9661 65.5267 66.5931 65.5267C65.7673 65.5267 65.2345 66.0889 65.2345 66.8654ZM70.4028 66.8654V65.5802H69.8433V65.9015C69.6568 65.6605 69.3904 65.5267 69.0441 65.5267C68.3248 65.5267 67.7653 66.0889 67.7653 66.8654C67.7653 67.6419 68.3248 68.2041 69.0441 68.2041C69.417 68.2041 69.6835 68.0702 69.8433 67.8293V68.1506H70.4028V66.8654ZM68.3514 66.8654C68.3514 66.4102 68.6445 66.0354 69.124 66.0354C69.5769 66.0354 69.8966 66.3835 69.8966 66.8654C69.8966 67.3206 69.5769 67.6954 69.124 67.6954C68.6445 67.6686 68.3514 67.3206 68.3514 66.8654ZM61.6646 65.5267C60.9187 65.5267 60.3859 66.0622 60.3859 66.8654C60.3859 67.6686 60.9187 68.2041 61.6913 68.2041C62.0642 68.2041 62.4372 68.097 62.7303 67.856L62.4639 67.4544C62.2507 67.6151 61.9843 67.7222 61.7179 67.7222C61.3716 67.7222 61.0253 67.5615 60.9453 67.1064H62.8368V66.8922C62.8635 66.0622 62.3839 65.5267 61.6646 65.5267ZM61.6646 66.0086C62.011 66.0086 62.2507 66.2228 62.304 66.6244H60.972C61.0253 66.2764 61.265 66.0086 61.6646 66.0086ZM75.5444 66.8654V64.5628H74.9849V65.9015C74.7984 65.6605 74.532 65.5267 74.1857 65.5267C73.4664 65.5267 72.907 66.0889 72.907 66.8654C72.907 67.6419 73.4664 68.2041 74.1857 68.2041C74.5587 68.2041 74.8251 68.0702 74.9849 67.8293V68.1506H75.5444V66.8654ZM73.4931 66.8654C73.4931 66.4102 73.7861 66.0354 74.2656 66.0354C74.7185 66.0354 75.0382 66.3835 75.0382 66.8654C75.0382 67.3206 74.7185 67.6954 74.2656 67.6954C73.7861 67.6686 73.4931 67.3206 73.4931 66.8654ZM54.7914 66.8654V65.5802H54.2319V65.9015C54.0454 65.6605 53.779 65.5267 53.4327 65.5267C52.7134 65.5267 52.154 66.0889 52.154 66.8654C52.154 67.6419 52.7134 68.2041 53.4327 68.2041C53.8057 68.2041 54.0721 68.0702 54.2319 67.8293V68.1506H54.7914V66.8654ZM52.7134 66.8654C52.7134 66.4102 53.0065 66.0354 53.486 66.0354C53.9389 66.0354 54.2586 66.3835 54.2586 66.8654C54.2586 67.3206 53.9389 67.6954 53.486 67.6954C53.0065 67.6686 52.7134 67.3206 52.7134 66.8654Z" fill="white"/>
            <path d="M65.714 46.0617H57.3222V61.2161H65.714V46.0617Z" fill="#FF5F00"/>
            <path d="M57.8551 53.6388C57.8551 50.5597 59.2936 47.8287 61.5048 46.0616C59.8797 44.7764 57.8284 44 55.5906 44C50.2891 44 46 48.3107 46 53.6388C46 58.9669 50.2891 63.2776 55.5906 63.2776C57.8284 63.2776 59.8797 62.5011 61.5048 61.216C59.2936 59.4756 57.8551 56.7178 57.8551 53.6388Z" fill="#EB001B"/>
            <path d="M77.0363 53.6388C77.0363 58.9669 72.7472 63.2776 67.4457 63.2776C65.2079 63.2776 63.1566 62.5011 61.5315 61.2159C63.7693 59.4488 65.1813 56.7178 65.1813 53.6388C65.1813 50.5597 63.7427 47.8287 61.5315 46.0616C63.1566 44.7764 65.2079 44 67.4457 44C72.7472 44 77.0363 48.3374 77.0363 53.6388Z" fill="#F79E1B"/>
        </g>
        <path d="M54.38 95.2522V96.7322L51.58 96.6122L53.08 98.9722L51.8 99.7122L50.5 97.2122L49.2 99.7122L47.94 98.9722L49.44 96.6122L46.64 96.7322V95.2522L49.46 95.3922L47.96 93.0122L49.22 92.2722L50.52 94.7722L51.8 92.2722L53.08 93.0322L51.58 95.3922L54.38 95.2522ZM68.6769 95.2522V96.7322L65.8769 96.6122L67.3769 98.9722L66.0969 99.7122L64.7969 97.2122L63.4969 99.7122L62.2369 98.9722L63.7369 96.6122L60.9369 96.7322V95.2522L63.7569 95.3922L62.2569 93.0122L63.5169 92.2722L64.8169 94.7722L66.0969 92.2722L67.3769 93.0322L65.8769 95.3922L68.6769 95.2522ZM82.9738 95.2522V96.7322L80.1738 96.6122L81.6738 98.9722L80.3938 99.7122L79.0938 97.2122L77.7938 99.7122L76.5338 98.9722L78.0338 96.6122L75.2338 96.7322V95.2522L78.0538 95.3922L76.5538 93.0122L77.8138 92.2722L79.1138 94.7722L80.3938 92.2722L81.6738 93.0322L80.1738 95.3922L82.9738 95.2522ZM97.2706 95.2522V96.7322L94.4706 96.6122L95.9706 98.9722L94.6906 99.7122L93.3906 97.2122L92.0906 99.7122L90.8306 98.9722L92.3306 96.6122L89.5306 96.7322V95.2522L92.3506 95.3922L90.8506 93.0122L92.1106 92.2722L93.4106 94.7722L94.6906 92.2722L95.9706 93.0322L94.4706 95.3922L97.2706 95.2522ZM116.841 95.2522V96.7322L114.041 96.6122L115.541 98.9722L114.261 99.7122L112.961 97.2122L111.661 99.7122L110.401 98.9722L111.901 96.6122L109.101 96.7322V95.2522L111.921 95.3922L110.421 93.0122L111.681 92.2722L112.981 94.7722L114.261 92.2722L115.541 93.0322L114.041 95.3922L116.841 95.2522ZM131.138 95.2522V96.7322L128.338 96.6122L129.838 98.9722L128.558 99.7122L127.258 97.2122L125.958 99.7122L124.698 98.9722L126.198 96.6122L123.398 96.7322V95.2522L126.218 95.3922L124.718 93.0122L125.978 92.2722L127.278 94.7722L128.558 92.2722L129.838 93.0322L128.338 95.3922L131.138 95.2522ZM145.435 95.2522V96.7322L142.635 96.6122L144.135 98.9722L142.855 99.7122L141.555 97.2122L140.255 99.7122L138.995 98.9722L140.495 96.6122L137.695 96.7322V95.2522L140.515 95.3922L139.015 93.0122L140.275 92.2722L141.575 94.7722L142.855 92.2722L144.135 93.0322L142.635 95.3922L145.435 95.2522ZM159.732 95.2522V96.7322L156.932 96.6122L158.432 98.9722L157.152 99.7122L155.852 97.2122L154.552 99.7122L153.292 98.9722L154.792 96.6122L151.992 96.7322V95.2522L154.812 95.3922L153.312 93.0122L154.572 92.2722L155.872 94.7722L157.152 92.2722L158.432 93.0322L156.932 95.3922L159.732 95.2522ZM179.302 95.2522V96.7322L176.502 96.6122L178.002 98.9722L176.722 99.7122L175.422 97.2122L174.122 99.7122L172.862 98.9722L174.362 96.6122L171.562 96.7322V95.2522L174.382 95.3922L172.882 93.0122L174.142 92.2722L175.442 94.7722L176.722 92.2722L178.002 93.0322L176.502 95.3922L179.302 95.2522ZM193.599 95.2522V96.7322L190.799 96.6122L192.299 98.9722L191.019 99.7122L189.719 97.2122L188.419 99.7122L187.159 98.9722L188.659 96.6122L185.859 96.7322V95.2522L188.679 95.3922L187.179 93.0122L188.439 92.2722L189.739 94.7722L191.019 92.2722L192.299 93.0322L190.799 95.3922L193.599 95.2522ZM207.896 95.2522V96.7322L205.096 96.6122L206.596 98.9722L205.316 99.7122L204.016 97.2122L202.716 99.7122L201.456 98.9722L202.956 96.6122L200.156 96.7322V95.2522L202.976 95.3922L201.476 93.0122L202.736 92.2722L204.036 94.7722L205.316 92.2722L206.596 93.0322L205.096 95.3922L207.896 95.2522ZM222.193 95.2522V96.7322L219.393 96.6122L220.893 98.9722L219.613 99.7122L218.313 97.2122L217.013 99.7122L215.753 98.9722L217.253 96.6122L214.453 96.7322V95.2522L217.273 95.3922L215.773 93.0122L217.033 92.2722L218.333 94.7722L219.613 92.2722L220.893 93.0322L219.393 95.3922L222.193 95.2522ZM241.088 99.3722C241.915 99.6122 242.548 100.026 242.988 100.612C243.428 101.186 243.648 101.912 243.648 102.792C243.648 104.019 243.228 104.986 242.388 105.692C241.562 106.399 240.435 106.752 239.008 106.752C238.102 106.752 237.228 106.599 236.388 106.292C235.548 105.986 234.842 105.559 234.268 105.012L234.888 103.752C236.168 104.832 237.528 105.372 238.968 105.372C239.968 105.372 240.728 105.152 241.248 104.712C241.768 104.259 242.028 103.599 242.028 102.732C242.028 101.012 240.948 100.152 238.788 100.152H237.168V98.7722H238.468C239.508 98.7722 240.308 98.5456 240.868 98.0922C241.428 97.6256 241.708 96.9589 241.708 96.0922C241.708 95.3322 241.482 94.7522 241.028 94.3522C240.575 93.9389 239.928 93.7322 239.088 93.7322C237.728 93.7322 236.395 94.2722 235.088 95.3522L234.468 94.0922C235.042 93.5456 235.742 93.1189 236.568 92.8122C237.395 92.5056 238.255 92.3522 239.148 92.3522C240.428 92.3522 241.442 92.6789 242.188 93.3322C242.948 93.9722 243.328 94.8389 243.328 95.9322C243.328 96.7456 243.128 97.4589 242.728 98.0722C242.342 98.6722 241.795 99.1056 241.088 99.3722ZM250.701 92.3522C252.407 92.3522 253.721 92.9456 254.641 94.1322C255.574 95.3189 256.041 97.0122 256.041 99.2122C256.041 101.599 255.561 103.459 254.601 104.792C253.641 106.112 252.301 106.772 250.581 106.772C249.781 106.772 248.994 106.626 248.221 106.332C247.447 106.026 246.767 105.592 246.181 105.032L246.801 103.772C247.467 104.332 248.101 104.746 248.701 105.012C249.314 105.266 249.934 105.392 250.561 105.392C251.774 105.392 252.714 104.859 253.381 103.792C254.047 102.712 254.381 101.192 254.381 99.2322V98.9722C254.074 99.7189 253.574 100.306 252.881 100.732C252.201 101.159 251.427 101.372 250.561 101.372C249.707 101.372 248.947 101.186 248.281 100.812C247.614 100.439 247.094 99.9122 246.721 99.2322C246.347 98.5522 246.161 97.7722 246.161 96.8922C246.161 96.0256 246.354 95.2456 246.741 94.5522C247.127 93.8589 247.667 93.3189 248.361 92.9322C249.054 92.5456 249.834 92.3522 250.701 92.3522ZM250.801 99.9922C251.721 99.9922 252.467 99.7056 253.041 99.1322C253.627 98.5456 253.921 97.7922 253.921 96.8722C253.921 95.9389 253.627 95.1856 253.041 94.6122C252.467 94.0256 251.714 93.7322 250.781 93.7322C249.874 93.7322 249.147 94.0189 248.601 94.5922C248.054 95.1656 247.781 95.9256 247.781 96.8722C247.781 97.8189 248.054 98.5789 248.601 99.1522C249.161 99.7122 249.894 99.9922 250.801 99.9922ZM268.413 102.192V103.552H266.293V106.612H264.673V103.552H258.153V102.312L264.953 92.5122H266.293V102.192H268.413ZM259.853 102.192H264.673V95.2522L259.853 102.192ZM270.465 92.5122H279.785V93.7322L273.185 106.612H271.405L277.985 93.8922H270.465V92.5122Z" fill="white"/>
        <path opacity="0.8" d="M50.7958 153.813C49.9798 153.813 49.2678 153.637 48.6598 153.285C48.0598 152.933 47.5958 152.433 47.2678 151.785C46.9478 151.129 46.7878 150.361 46.7878 149.481C46.7878 148.601 46.9478 147.837 47.2678 147.189C47.5958 146.533 48.0598 146.033 48.6598 145.689C49.2678 145.337 49.9798 145.161 50.7958 145.161C51.3718 145.161 51.9078 145.253 52.4038 145.437C52.8998 145.613 53.3198 145.869 53.6638 146.205L53.2318 147.117C52.8398 146.789 52.4478 146.553 52.0558 146.409C51.6718 146.265 51.2558 146.193 50.8078 146.193C49.9278 146.193 49.2478 146.477 48.7678 147.045C48.2958 147.613 48.0598 148.425 48.0598 149.481C48.0598 150.537 48.2958 151.353 48.7678 151.929C49.2478 152.497 49.9278 152.781 50.8078 152.781C51.2558 152.781 51.6718 152.709 52.0558 152.565C52.4478 152.421 52.8398 152.185 53.2318 151.857L53.6638 152.769C53.3198 153.105 52.8998 153.365 52.4038 153.549C51.9078 153.725 51.3718 153.813 50.7958 153.813ZM57.3837 147.717C58.1677 147.717 58.7477 147.913 59.1237 148.305C59.5077 148.697 59.6997 149.293 59.6997 150.093V153.717H58.5357V152.745C58.3837 153.089 58.1557 153.353 57.8517 153.537C57.5557 153.713 57.2077 153.801 56.8077 153.801C56.4237 153.801 56.0717 153.725 55.7517 153.573C55.4317 153.413 55.1797 153.193 54.9957 152.913C54.8197 152.633 54.7317 152.321 54.7317 151.977C54.7317 151.553 54.8397 151.221 55.0557 150.981C55.2797 150.733 55.6437 150.557 56.1477 150.453C56.6597 150.349 57.3597 150.297 58.2477 150.297H58.5237V149.949C58.5237 149.501 58.4277 149.177 58.2357 148.977C58.0517 148.777 57.7477 148.677 57.3237 148.677C56.6597 148.677 55.9957 148.881 55.3317 149.289L54.9717 148.437C55.2837 148.221 55.6597 148.049 56.0997 147.921C56.5477 147.785 56.9757 147.717 57.3837 147.717ZM57.0237 152.901C57.4637 152.901 57.8237 152.753 58.1037 152.457C58.3837 152.153 58.5237 151.765 58.5237 151.293V150.981H58.3077C57.6837 150.981 57.2037 151.009 56.8677 151.065C56.5317 151.121 56.2917 151.217 56.1477 151.353C56.0037 151.481 55.9317 151.669 55.9317 151.917C55.9317 152.197 56.0317 152.433 56.2317 152.625C56.4397 152.809 56.7037 152.901 57.0237 152.901ZM64.9216 148.737L64.1896 148.809C63.6136 148.865 63.1976 149.041 62.9416 149.337C62.6936 149.633 62.5696 150.009 62.5696 150.465V153.717H61.3576V147.861H62.5336V148.881C62.8456 148.193 63.4816 147.813 64.4416 147.741L64.8376 147.717L64.9216 148.737ZM71.0349 145.257V153.717H69.8349V152.709C69.6589 153.061 69.4029 153.333 69.0669 153.525C68.7309 153.709 68.3429 153.801 67.9029 153.801C67.3989 153.801 66.9469 153.673 66.5469 153.417C66.1549 153.161 65.8469 152.801 65.6229 152.337C65.4069 151.873 65.2989 151.341 65.2989 150.741C65.2989 150.133 65.4069 149.601 65.6229 149.145C65.8469 148.689 66.1549 148.337 66.5469 148.089C66.9389 147.841 67.3909 147.717 67.9029 147.717C68.3429 147.717 68.7269 147.813 69.0549 148.005C69.3909 148.189 69.6469 148.453 69.8229 148.797V145.257H71.0349ZM68.1909 152.841C68.7189 152.841 69.1229 152.661 69.4029 152.301C69.6909 151.941 69.8349 151.429 69.8349 150.765C69.8349 150.101 69.6909 149.589 69.4029 149.229C69.1229 148.869 68.7189 148.689 68.1909 148.689C67.6629 148.689 67.2509 148.869 66.9549 149.229C66.6669 149.581 66.5229 150.085 66.5229 150.741C66.5229 151.397 66.6709 151.913 66.9669 152.289C67.2629 152.657 67.6709 152.841 68.1909 152.841ZM81.9848 145.257H83.2088V153.717H81.9848V149.925H77.2568V153.717H76.0328V145.257H77.2568V148.917H81.9848V145.257ZM87.5735 153.801C86.9975 153.801 86.4895 153.677 86.0495 153.429C85.6175 153.181 85.2815 152.829 85.0415 152.373C84.8095 151.909 84.6935 151.373 84.6935 150.765C84.6935 150.149 84.8095 149.613 85.0415 149.157C85.2815 148.693 85.6175 148.337 86.0495 148.089C86.4895 147.841 86.9975 147.717 87.5735 147.717C88.1495 147.717 88.6535 147.841 89.0855 148.089C89.5255 148.337 89.8615 148.693 90.0935 149.157C90.3335 149.613 90.4535 150.149 90.4535 150.765C90.4535 151.373 90.3335 151.909 90.0935 152.373C89.8615 152.829 89.5255 153.181 89.0855 153.429C88.6535 153.677 88.1495 153.801 87.5735 153.801ZM87.5735 152.841C88.1095 152.841 88.5175 152.665 88.7975 152.313C89.0855 151.961 89.2295 151.445 89.2295 150.765C89.2295 150.093 89.0855 149.581 88.7975 149.229C88.5095 148.869 88.1015 148.689 87.5735 148.689C87.0455 148.689 86.6375 148.869 86.3495 149.229C86.0615 149.581 85.9175 150.093 85.9175 150.765C85.9175 151.445 86.0575 151.961 86.3375 152.313C86.6255 152.665 87.0375 152.841 87.5735 152.841ZM91.8029 153.717V145.257H93.0149V153.717H91.8029ZM100.109 145.257V153.717H98.9091V152.709C98.7331 153.061 98.4771 153.333 98.1411 153.525C97.8051 153.709 97.4171 153.801 96.9771 153.801C96.4731 153.801 96.0211 153.673 95.6211 153.417C95.2291 153.161 94.9211 152.801 94.6971 152.337C94.4811 151.873 94.3731 151.341 94.3731 150.741C94.3731 150.133 94.4811 149.601 94.6971 149.145C94.9211 148.689 95.2291 148.337 95.6211 148.089C96.0131 147.841 96.4651 147.717 96.9771 147.717C97.4171 147.717 97.8011 147.813 98.1291 148.005C98.4651 148.189 98.7211 148.453 98.8971 148.797V145.257H100.109ZM97.2651 152.841C97.7931 152.841 98.1971 152.661 98.4771 152.301C98.7651 151.941 98.9091 151.429 98.9091 150.765C98.9091 150.101 98.7651 149.589 98.4771 149.229C98.1971 148.869 97.7931 148.689 97.2651 148.689C96.7371 148.689 96.3251 148.869 96.0291 149.229C95.7411 149.581 95.5971 150.085 95.5971 150.741C95.5971 151.397 95.7451 151.913 96.0411 152.289C96.3371 152.657 96.7451 152.841 97.2651 152.841ZM106.815 150.993H102.675C102.763 152.233 103.379 152.853 104.523 152.853C105.195 152.853 105.803 152.633 106.347 152.193L106.719 153.045C106.447 153.277 106.111 153.461 105.711 153.597C105.311 153.733 104.903 153.801 104.487 153.801C103.551 153.801 102.811 153.533 102.267 152.997C101.731 152.461 101.463 151.721 101.463 150.777C101.463 150.177 101.579 149.645 101.811 149.181C102.051 148.717 102.383 148.357 102.807 148.101C103.239 147.845 103.727 147.717 104.271 147.717C105.063 147.717 105.683 147.973 106.131 148.485C106.587 148.997 106.815 149.705 106.815 150.609V150.993ZM104.295 148.605C103.831 148.605 103.459 148.753 103.179 149.049C102.907 149.337 102.743 149.753 102.687 150.297H105.771C105.747 149.753 105.607 149.337 105.351 149.049C105.103 148.753 104.751 148.605 104.295 148.605ZM111.715 148.737L110.983 148.809C110.407 148.865 109.991 149.041 109.735 149.337C109.487 149.633 109.363 150.009 109.363 150.465V153.717H108.151V147.861H109.327V148.881C109.639 148.193 110.275 147.813 111.235 147.741L111.631 147.717L111.715 148.737ZM121.637 145.257H122.801V153.717H121.853L117.017 147.333V153.717H115.853V145.257H116.789L121.637 151.653V145.257ZM127.075 147.717C127.859 147.717 128.439 147.913 128.815 148.305C129.199 148.697 129.391 149.293 129.391 150.093V153.717H128.227V152.745C128.075 153.089 127.847 153.353 127.543 153.537C127.247 153.713 126.899 153.801 126.499 153.801C126.115 153.801 125.763 153.725 125.443 153.573C125.123 153.413 124.871 153.193 124.687 152.913C124.511 152.633 124.423 152.321 124.423 151.977C124.423 151.553 124.531 151.221 124.747 150.981C124.971 150.733 125.335 150.557 125.839 150.453C126.351 150.349 127.051 150.297 127.939 150.297H128.215V149.949C128.215 149.501 128.119 149.177 127.927 148.977C127.743 148.777 127.439 148.677 127.015 148.677C126.351 148.677 125.687 148.881 125.023 149.289L124.663 148.437C124.975 148.221 125.351 148.049 125.791 147.921C126.239 147.785 126.667 147.717 127.075 147.717ZM126.715 152.901C127.155 152.901 127.515 152.753 127.795 152.457C128.075 152.153 128.215 151.765 128.215 151.293V150.981H127.999C127.375 150.981 126.895 151.009 126.559 151.065C126.223 151.121 125.983 151.217 125.839 151.353C125.695 151.481 125.623 151.669 125.623 151.917C125.623 152.197 125.723 152.433 125.923 152.625C126.131 152.809 126.395 152.901 126.715 152.901ZM137.769 147.717C139.081 147.717 139.737 148.505 139.737 150.081V153.717H138.525V150.129C138.525 149.633 138.437 149.273 138.261 149.049C138.093 148.817 137.817 148.701 137.433 148.701C136.993 148.701 136.645 148.853 136.389 149.157C136.133 149.461 136.005 149.877 136.005 150.405V153.717H134.793V150.129C134.793 149.633 134.705 149.273 134.529 149.049C134.353 148.817 134.077 148.701 133.701 148.701C133.253 148.701 132.901 148.853 132.645 149.157C132.389 149.461 132.261 149.877 132.261 150.405V153.717H131.049V147.861H132.237V148.749C132.421 148.421 132.669 148.169 132.981 147.993C133.293 147.809 133.649 147.717 134.049 147.717C134.953 147.717 135.541 148.093 135.813 148.845C135.997 148.493 136.261 148.217 136.605 148.017C136.949 147.817 137.337 147.717 137.769 147.717ZM146.413 150.993H142.273C142.361 152.233 142.977 152.853 144.121 152.853C144.793 152.853 145.401 152.633 145.945 152.193L146.317 153.045C146.045 153.277 145.709 153.461 145.309 153.597C144.909 153.733 144.501 153.801 144.085 153.801C143.149 153.801 142.409 153.533 141.865 152.997C141.329 152.461 141.061 151.721 141.061 150.777C141.061 150.177 141.177 149.645 141.409 149.181C141.649 148.717 141.981 148.357 142.405 148.101C142.837 147.845 143.325 147.717 143.869 147.717C144.661 147.717 145.281 147.973 145.729 148.485C146.185 148.997 146.413 149.705 146.413 150.609V150.993ZM143.893 148.605C143.429 148.605 143.057 148.753 142.777 149.049C142.505 149.337 142.341 149.753 142.285 150.297H145.369C145.345 149.753 145.205 149.337 144.949 149.049C144.701 148.753 144.349 148.605 143.893 148.605Z" fill="white"/>
        <path opacity="0.8" d="M250.984 153.717V145.257H256.48V146.253H252.196V148.917H256.24V149.925H252.196V152.721H256.48V153.717H250.984ZM260.872 150.705L263.32 153.717H261.868L260.164 151.581L258.472 153.717H257.02L259.468 150.705L257.152 147.861H258.616L260.164 149.841L261.724 147.861H263.176L260.872 150.705ZM267.308 147.717C267.812 147.717 268.26 147.845 268.652 148.101C269.052 148.357 269.36 148.717 269.576 149.181C269.8 149.645 269.912 150.181 269.912 150.789C269.912 151.389 269.804 151.917 269.588 152.373C269.372 152.829 269.064 153.181 268.664 153.429C268.272 153.677 267.82 153.801 267.308 153.801C266.868 153.801 266.48 153.709 266.144 153.525C265.808 153.333 265.552 153.061 265.376 152.709V155.877H264.164V147.861H265.376V148.821C265.552 148.469 265.808 148.197 266.144 148.005C266.48 147.813 266.868 147.717 267.308 147.717ZM267.02 152.841C267.548 152.841 267.956 152.665 268.244 152.313C268.532 151.953 268.676 151.445 268.676 150.789C268.676 150.125 268.528 149.609 268.232 149.241C267.944 148.873 267.54 148.689 267.02 148.689C266.492 148.689 266.084 148.869 265.796 149.229C265.516 149.589 265.376 150.101 265.376 150.765C265.376 151.429 265.516 151.941 265.796 152.301C266.084 152.661 266.492 152.841 267.02 152.841ZM271.254 153.717V147.861H272.466V153.717H271.254ZM271.17 145.245H272.562V146.505H271.17V145.245ZM277.724 148.737L276.992 148.809C276.416 148.865 276 149.041 275.744 149.337C275.496 149.633 275.372 150.009 275.372 150.465V153.717H274.16V147.861H275.336V148.881C275.648 148.193 276.284 147.813 277.244 147.741L277.64 147.717L277.724 148.737ZM283.07 147.873H284.282L280.79 155.877H279.566L280.586 153.573L278.126 147.873H279.398L281.222 152.349L283.07 147.873ZM288.461 145.257H291.425C292.793 145.257 293.853 145.625 294.605 146.361C295.357 147.097 295.733 148.137 295.733 149.481C295.733 150.825 295.357 151.869 294.605 152.613C293.853 153.349 292.793 153.717 291.425 153.717H288.461V145.257ZM291.353 152.685C293.433 152.685 294.473 151.617 294.473 149.481C294.473 147.353 293.433 146.289 291.353 146.289H289.697V152.685H291.353ZM299.718 147.717C300.502 147.717 301.082 147.913 301.458 148.305C301.842 148.697 302.034 149.293 302.034 150.093V153.717H300.87V152.745C300.718 153.089 300.49 153.353 300.186 153.537C299.89 153.713 299.542 153.801 299.142 153.801C298.758 153.801 298.406 153.725 298.086 153.573C297.766 153.413 297.514 153.193 297.33 152.913C297.154 152.633 297.066 152.321 297.066 151.977C297.066 151.553 297.174 151.221 297.39 150.981C297.614 150.733 297.978 150.557 298.482 150.453C298.994 150.349 299.694 150.297 300.582 150.297H300.858V149.949C300.858 149.501 300.762 149.177 300.57 148.977C300.386 148.777 300.082 148.677 299.658 148.677C298.994 148.677 298.33 148.881 297.666 149.289L297.306 148.437C297.618 148.221 297.994 148.049 298.434 147.921C298.882 147.785 299.31 147.717 299.718 147.717ZM299.358 152.901C299.798 152.901 300.158 152.753 300.438 152.457C300.718 152.153 300.858 151.765 300.858 151.293V150.981H300.642C300.018 150.981 299.538 151.009 299.202 151.065C298.866 151.121 298.626 151.217 298.482 151.353C298.338 151.481 298.266 151.669 298.266 151.917C298.266 152.197 298.366 152.433 298.566 152.625C298.774 152.809 299.038 152.901 299.358 152.901ZM306.464 152.865C306.648 152.865 306.828 152.853 307.004 152.829L306.944 153.753C306.744 153.785 306.536 153.801 306.32 153.801C305.56 153.801 304.992 153.617 304.616 153.249C304.248 152.873 304.064 152.333 304.064 151.629V148.797H302.924V147.861H304.064V146.097H305.276V147.861H306.884V148.797H305.276V151.581C305.276 152.437 305.672 152.865 306.464 152.865ZM312.938 150.993H308.798C308.886 152.233 309.502 152.853 310.646 152.853C311.318 152.853 311.926 152.633 312.47 152.193L312.842 153.045C312.57 153.277 312.234 153.461 311.834 153.597C311.434 153.733 311.026 153.801 310.61 153.801C309.674 153.801 308.934 153.533 308.39 152.997C307.854 152.461 307.586 151.721 307.586 150.777C307.586 150.177 307.702 149.645 307.934 149.181C308.174 148.717 308.506 148.357 308.93 148.101C309.362 147.845 309.85 147.717 310.394 147.717C311.186 147.717 311.806 147.973 312.254 148.485C312.71 148.997 312.938 149.705 312.938 150.609V150.993ZM310.418 148.605C309.954 148.605 309.582 148.753 309.302 149.049C309.03 149.337 308.866 149.753 308.81 150.297H311.894C311.87 149.753 311.73 149.337 311.474 149.049C311.226 148.753 310.874 148.605 310.418 148.605Z" fill="white"/>
        <path d="M46.3325 175.085L47.2285 175.029C47.6765 174.992 48.0172 174.843 48.2505 174.581C48.4839 174.311 48.6005 173.937 48.6005 173.461V166.293H50.0565V173.475C50.0565 174.315 49.8325 174.969 49.3845 175.435C48.9459 175.902 48.3019 176.159 47.4525 176.205L46.4305 176.275L46.3325 175.085ZM57.6379 172.985H52.8079C52.9106 174.432 53.6292 175.155 54.9639 175.155C55.7479 175.155 56.4572 174.899 57.0919 174.385L57.5259 175.379C57.2086 175.65 56.8166 175.865 56.3499 176.023C55.8832 176.182 55.4072 176.261 54.9219 176.261C53.8299 176.261 52.9666 175.949 52.3319 175.323C51.7066 174.698 51.3939 173.835 51.3939 172.733C51.3939 172.033 51.5292 171.413 51.7999 170.871C52.0799 170.33 52.4672 169.91 52.9619 169.611C53.4659 169.313 54.0352 169.163 54.6699 169.163C55.5939 169.163 56.3172 169.462 56.8399 170.059C57.3719 170.657 57.6379 171.483 57.6379 172.537V172.985ZM54.6979 170.199C54.1566 170.199 53.7226 170.372 53.3959 170.717C53.0786 171.053 52.8872 171.539 52.8219 172.173H56.4199C56.3919 171.539 56.2286 171.053 55.9299 170.717C55.6406 170.372 55.2299 170.199 54.6979 170.199ZM62.482 169.163C64.1153 169.163 64.932 170.083 64.932 171.921V176.163H63.518V171.991C63.518 171.413 63.4013 170.988 63.168 170.717C62.944 170.447 62.5893 170.311 62.104 170.311C61.5346 170.311 61.0773 170.489 60.732 170.843C60.3866 171.198 60.214 171.674 60.214 172.271V176.163H58.8V169.331H60.186V170.423C60.41 170.013 60.7226 169.7 61.124 169.485C61.5253 169.271 61.978 169.163 62.482 169.163ZM70.1523 169.163C71.7856 169.163 72.6023 170.083 72.6023 171.921V176.163H71.1883V171.991C71.1883 171.413 71.0716 170.988 70.8383 170.717C70.6143 170.447 70.2596 170.311 69.7743 170.311C69.2049 170.311 68.7476 170.489 68.4023 170.843C68.0569 171.198 67.8843 171.674 67.8843 172.271V176.163H66.4703V169.331H67.8563V170.423C68.0803 170.013 68.3929 169.7 68.7943 169.485C69.1956 169.271 69.6483 169.163 70.1523 169.163ZM78.9846 169.345H80.3986L76.3246 178.683H74.8966L76.0866 175.995L73.2166 169.345H74.7006L76.8286 174.567L78.9846 169.345ZM83.071 169.331H84.947V170.423H83.071V176.163H81.657V170.423H80.327V169.331H81.657V169.205C81.657 168.263 81.895 167.553 82.371 167.077C82.8563 166.601 83.5936 166.335 84.583 166.279L85.213 166.251L85.297 167.315L84.653 167.357C84.093 167.385 83.687 167.53 83.435 167.791C83.1923 168.053 83.071 168.449 83.071 168.981V169.331ZM91.3957 172.985H86.5657C86.6683 174.432 87.387 175.155 88.7217 175.155C89.5057 175.155 90.215 174.899 90.8497 174.385L91.2837 175.379C90.9663 175.65 90.5743 175.865 90.1077 176.023C89.641 176.182 89.165 176.261 88.6797 176.261C87.5877 176.261 86.7243 175.949 86.0897 175.323C85.4643 174.698 85.1517 173.835 85.1517 172.733C85.1517 172.033 85.287 171.413 85.5577 170.871C85.8377 170.33 86.225 169.91 86.7197 169.611C87.2237 169.313 87.793 169.163 88.4277 169.163C89.3517 169.163 90.075 169.462 90.5977 170.059C91.1297 170.657 91.3957 171.483 91.3957 172.537V172.985ZM88.4557 170.199C87.9143 170.199 87.4803 170.372 87.1537 170.717C86.8363 171.053 86.645 171.539 86.5797 172.173H90.1777C90.1497 171.539 89.9863 171.053 89.6877 170.717C89.3983 170.372 88.9877 170.199 88.4557 170.199ZM96.7157 170.353L95.8617 170.437C95.1897 170.503 94.7044 170.708 94.4057 171.053C94.1164 171.399 93.9717 171.837 93.9717 172.369V176.163H92.5577V169.331H93.9297V170.521C94.2937 169.719 95.0357 169.275 96.1557 169.191L96.6177 169.163L96.7157 170.353ZM100.752 166.293H104.21C105.806 166.293 107.043 166.723 107.92 167.581C108.797 168.44 109.236 169.653 109.236 171.221C109.236 172.789 108.797 174.007 107.92 174.875C107.043 175.734 105.806 176.163 104.21 176.163H100.752V166.293ZM104.126 174.959C106.553 174.959 107.766 173.713 107.766 171.221C107.766 168.739 106.553 167.497 104.126 167.497H102.194V174.959H104.126ZM113.601 176.261C112.929 176.261 112.336 176.117 111.823 175.827C111.319 175.538 110.927 175.127 110.647 174.595C110.376 174.054 110.241 173.429 110.241 172.719C110.241 172.001 110.376 171.375 110.647 170.843C110.927 170.302 111.319 169.887 111.823 169.597C112.336 169.308 112.929 169.163 113.601 169.163C114.273 169.163 114.861 169.308 115.365 169.597C115.878 169.887 116.27 170.302 116.541 170.843C116.821 171.375 116.961 172.001 116.961 172.719C116.961 173.429 116.821 174.054 116.541 174.595C116.27 175.127 115.878 175.538 115.365 175.827C114.861 176.117 114.273 176.261 113.601 176.261ZM113.601 175.141C114.226 175.141 114.702 174.936 115.029 174.525C115.365 174.115 115.533 173.513 115.533 172.719C115.533 171.935 115.365 171.338 115.029 170.927C114.693 170.507 114.217 170.297 113.601 170.297C112.985 170.297 112.509 170.507 112.173 170.927C111.837 171.338 111.669 171.935 111.669 172.719C111.669 173.513 111.832 174.115 112.159 174.525C112.495 174.936 112.976 175.141 113.601 175.141ZM123.991 172.985H119.161C119.264 174.432 119.983 175.155 121.317 175.155C122.101 175.155 122.811 174.899 123.445 174.385L123.879 175.379C123.562 175.65 123.17 175.865 122.703 176.023C122.237 176.182 121.761 176.261 121.275 176.261C120.183 176.261 119.32 175.949 118.685 175.323C118.06 174.698 117.747 173.835 117.747 172.733C117.747 172.033 117.883 171.413 118.153 170.871C118.433 170.33 118.821 169.91 119.315 169.611C119.819 169.313 120.389 169.163 121.023 169.163C121.947 169.163 122.671 169.462 123.193 170.059C123.725 170.657 123.991 171.483 123.991 172.537V172.985ZM121.051 170.199C120.51 170.199 120.076 170.372 119.749 170.717C119.432 171.053 119.241 171.539 119.175 172.173H122.773C122.745 171.539 122.582 171.053 122.283 170.717C121.994 170.372 121.583 170.199 121.051 170.199Z" fill="white"/>
        <path d="M254.632 176.275C253.484 176.275 252.607 175.846 252 174.987C251.403 174.129 251.104 172.878 251.104 171.235C251.104 169.593 251.403 168.342 252 167.483C252.607 166.615 253.484 166.181 254.632 166.181C255.78 166.181 256.653 166.611 257.25 167.469C257.857 168.328 258.16 169.579 258.16 171.221C258.16 172.873 257.857 174.129 257.25 174.987C256.653 175.846 255.78 176.275 254.632 176.275ZM254.632 175.113C255.351 175.113 255.878 174.801 256.214 174.175C256.55 173.55 256.718 172.565 256.718 171.221C256.718 169.887 256.55 168.911 256.214 168.295C255.878 167.67 255.351 167.357 254.632 167.357C253.913 167.357 253.386 167.67 253.05 168.295C252.714 168.911 252.546 169.887 252.546 171.221C252.546 172.556 252.714 173.541 253.05 174.175C253.386 174.801 253.913 175.113 254.632 175.113ZM263.106 169.919C263.722 169.919 264.264 170.05 264.73 170.311C265.197 170.573 265.556 170.941 265.808 171.417C266.07 171.893 266.2 172.439 266.2 173.055C266.2 173.69 266.056 174.25 265.766 174.735C265.486 175.221 265.08 175.599 264.548 175.869C264.026 176.131 263.414 176.261 262.714 176.261C262.108 176.261 261.506 176.154 260.908 175.939C260.32 175.725 259.83 175.435 259.438 175.071L259.942 174.007C260.829 174.726 261.758 175.085 262.728 175.085C263.382 175.085 263.89 174.913 264.254 174.567C264.618 174.213 264.8 173.718 264.8 173.083C264.8 172.477 264.618 171.991 264.254 171.627C263.89 171.263 263.405 171.081 262.798 171.081C261.93 171.081 261.216 171.417 260.656 172.089H259.732V166.293H265.78V167.455H261.16V170.563C261.674 170.134 262.322 169.919 263.106 169.919ZM267.269 177.115L266.149 176.765L269.733 165.579L270.853 165.929L267.269 177.115ZM277.763 174.973V176.163H271.295V175.085L274.697 171.361C275.136 170.885 275.453 170.451 275.649 170.059C275.845 169.667 275.943 169.28 275.943 168.897C275.943 168.393 275.799 168.011 275.509 167.749C275.22 167.488 274.805 167.357 274.263 167.357C273.339 167.357 272.425 167.717 271.519 168.435L271.015 167.371C271.407 167.007 271.902 166.718 272.499 166.503C273.097 166.289 273.699 166.181 274.305 166.181C275.248 166.181 275.995 166.419 276.545 166.895C277.096 167.362 277.371 167.997 277.371 168.799C277.371 169.369 277.245 169.91 276.993 170.423C276.751 170.937 276.34 171.511 275.761 172.145L273.115 174.973H277.763ZM283.83 171.095C284.408 171.263 284.847 171.553 285.146 171.963C285.454 172.365 285.608 172.873 285.608 173.489C285.608 174.348 285.304 175.025 284.698 175.519C284.091 176.014 283.27 176.261 282.234 176.261C281.58 176.261 280.955 176.159 280.358 175.953C279.76 175.739 279.261 175.445 278.86 175.071L279.378 174.007C280.264 174.726 281.202 175.085 282.192 175.085C282.854 175.085 283.354 174.945 283.69 174.665C284.035 174.376 284.208 173.951 284.208 173.391C284.208 172.841 284.03 172.43 283.676 172.159C283.33 171.879 282.803 171.739 282.094 171.739H280.876V170.577H281.87C282.551 170.577 283.069 170.437 283.424 170.157C283.788 169.868 283.97 169.448 283.97 168.897C283.97 168.403 283.82 168.025 283.522 167.763C283.223 167.493 282.803 167.357 282.262 167.357C281.319 167.357 280.404 167.717 279.518 168.435L279.014 167.371C279.406 166.998 279.896 166.709 280.484 166.503C281.081 166.289 281.697 166.181 282.332 166.181C283.256 166.181 283.993 166.41 284.544 166.867C285.094 167.325 285.37 167.945 285.37 168.729C285.37 169.28 285.234 169.765 284.964 170.185C284.693 170.605 284.315 170.909 283.83 171.095Z" fill="white"/>
    </g>
    <defs>
        <filter id="filter0_d_11_1445" x="-3.27114" y="0.699708" width="381.542" height="228.542" filterUnits="userSpaceOnUse" color-interpolation-filters="sRGB">
            <feFlood flood-opacity="0" result="BackgroundImageFix"/>
            <feColorMatrix in="SourceAlpha" type="matrix" values="0 0 0 0 0 0 0 0 0 0 0 0 0 0 0 0 0 0 127 0" result="hardAlpha"/>
            <feOffset dy="0.970845"/>
            <feGaussianBlur stdDeviation="12.1356"/>
            <feColorMatrix type="matrix" values="0 0 0 0 0 0 0 0 0 0 0 0 0 0 0 0 0 0 0.34 0"/>
            <feBlend mode="normal" in2="BackgroundImageFix" result="effect1_dropShadow_11_1445"/>
            <feBlend mode="normal" in="SourceGraphic" in2="effect1_dropShadow_11_1445" result="shape"/>
        </filter>
        <filter id="filter1_d_11_1445" x="11" y="15" width="353" height="200" filterUnits="userSpaceOnUse" color-interpolation-filters="sRGB">
            <feFlood flood-opacity="0" result="BackgroundImageFix"/>
            <feColorMatrix in="SourceAlpha" type="matrix" values="0 0 0 0 0 0 0 0 0 0 0 0 0 0 0 0 0 0 127 0" result="hardAlpha"/>
            <feOffset dy="1"/>
            <feGaussianBlur stdDeviation="5"/>
            <feColorMatrix type="matrix" values="0 0 0 0 0 0 0 0 0 0 0 0 0 0 0 0 0 0 0.05 0"/>
            <feBlend mode="normal" in2="BackgroundImageFix" result="effect1_dropShadow_11_1445"/>
            <feBlend mode="normal" in="SourceGraphic" in2="effect1_dropShadow_11_1445" result="shape"/>
        </filter>
        <linearGradient id="paint0_linear_11_1445" x1="255.354" y1="201.424" x2="69.4373" y2="83.9519" gradientUnits="userSpaceOnUse">
            <stop stop-color="white"/>
            <stop offset="1" stop-color="white" stop-opacity="0"/>
        </linearGradient>
        <clipPath id="clip0_11_1445">
            <rect width="31.0671" height="24.2711" fill="white" transform="translate(46 44)"/>
        </clipPath>
    </defs>
</svg>
