<svg width="100" height="36" viewBox="0 0 100 36" fill="none" xmlns="http://www.w3.org/2000/svg">
    <path d="M0 0H96C98.2091 0 100 1.79086 100 4V32C100 34.2091 98.2091 36 96 36H0V0Z" fill="#242424"/>
    <path d="M30.312 23V11.72H34.296C36.152 11.72 37.5813 12.2053 38.584 13.176C39.5973 14.1467 40.104 15.5387 40.104 17.352C40.104 19.1653 39.5973 20.5627 38.584 21.544C37.5813 22.5147 36.152 23 34.296 23H30.312ZM31.976 21.608H34.2C36.984 21.608 38.376 20.1893 38.376 17.352C38.376 14.5253 36.984 13.112 34.2 13.112H31.976V21.608ZM45.8156 23.144C44.5356 23.144 43.5276 22.7867 42.7916 22.072C42.0556 21.3467 41.6876 20.36 41.6876 19.112C41.6876 18.312 41.8476 17.608 42.1676 17C42.4983 16.3813 42.9516 15.9013 43.5276 15.56C44.1036 15.2187 44.765 15.048 45.5116 15.048C46.589 15.048 47.437 15.3947 48.0556 16.088C48.6743 16.7707 48.9836 17.7147 48.9836 18.92V19.464H43.2556C43.373 21.0853 44.2316 21.896 45.8316 21.896C46.2796 21.896 46.717 21.8267 47.1436 21.688C47.581 21.5493 47.9916 21.32 48.3756 21L48.8556 22.12C48.5036 22.44 48.0503 22.6907 47.4956 22.872C46.941 23.0533 46.381 23.144 45.8156 23.144ZM45.5756 16.184C44.9036 16.184 44.3703 16.392 43.9756 16.808C43.581 17.224 43.341 17.7787 43.2556 18.472H47.6236C47.5916 17.7467 47.3996 17.1867 47.0476 16.792C46.6956 16.3867 46.205 16.184 45.5756 16.184ZM54.0578 23.144C53.0764 23.144 52.3458 22.8933 51.8658 22.392C51.3858 21.8907 51.1458 21.1653 51.1458 20.216V16.44H49.6258V15.192H51.1458V12.84H52.7618V15.192H55.1778V16.44H52.7618V20.088C52.7618 20.6533 52.8791 21.08 53.1138 21.368C53.3591 21.656 53.7538 21.8 54.2977 21.8C54.4684 21.8 54.6338 21.784 54.7938 21.752C54.9538 21.7093 55.1138 21.6613 55.2738 21.608L55.5298 22.824C55.3698 22.92 55.1458 22.9947 54.8578 23.048C54.5804 23.112 54.3138 23.144 54.0578 23.144ZM59.0695 23.144C58.5255 23.144 58.0402 23.0373 57.6135 22.824C57.1868 22.6107 56.8455 22.3227 56.5895 21.96C56.3442 21.5973 56.2215 21.1867 56.2215 20.728C56.2215 20.152 56.3655 19.6987 56.6535 19.368C56.9522 19.0373 57.4375 18.7973 58.1095 18.648C58.7922 18.4987 59.7095 18.424 60.8615 18.424H61.4055V18.008C61.4055 17.4 61.2775 16.9627 61.0215 16.696C60.7655 16.4293 60.3442 16.296 59.7575 16.296C59.3095 16.296 58.8615 16.3653 58.4135 16.504C57.9655 16.632 57.5068 16.84 57.0375 17.128L56.5415 15.992C56.9468 15.704 57.4535 15.4747 58.0615 15.304C58.6695 15.1333 59.2508 15.048 59.8055 15.048C60.8722 15.048 61.6615 15.304 62.1735 15.816C62.6855 16.3173 62.9415 17.1067 62.9415 18.184V23H61.4215V21.704C61.2295 22.152 60.9308 22.504 60.5255 22.76C60.1202 23.016 59.6348 23.144 59.0695 23.144ZM59.3895 21.992C59.9655 21.992 60.4455 21.7893 60.8295 21.384C61.2135 20.9787 61.4055 20.4667 61.4055 19.848V19.416H60.8775C60.0988 19.416 59.4855 19.4533 59.0375 19.528C58.6002 19.6027 58.2855 19.7307 58.0935 19.912C57.9122 20.0827 57.8215 20.3227 57.8215 20.632C57.8215 21.0373 57.9602 21.368 58.2375 21.624C58.5148 21.8693 58.8988 21.992 59.3895 21.992ZM65.0233 13.384V11.704H66.9113V13.384H65.0233ZM65.1673 23V15.192H66.7833V23H65.1673ZM71.6019 23.144C70.7485 23.144 70.1085 22.904 69.6819 22.424C69.2659 21.944 69.0579 21.24 69.0579 20.312V11.72H70.6739V20.216C70.6739 21.272 71.1059 21.8 71.9699 21.8C72.0979 21.8 72.2152 21.7947 72.3219 21.784C72.4392 21.7733 72.5565 21.752 72.6739 21.72L72.6419 23.016C72.2792 23.1013 71.9325 23.144 71.6019 23.144Z" fill="white"/>
</svg>
