<svg width="20" height="20" viewBox="0 0 20 20" fill="none" xmlns="http://www.w3.org/2000/svg">
    <path d="M9.16669 1.66666C13.3067 1.66666 16.6667 5.02666 16.6667 9.16666C16.6667 13.3067 13.3067 16.6667 9.16669 16.6667C5.02669 16.6667 1.66669 13.3067 1.66669 9.16666C1.66669 5.02666 5.02669 1.66666 9.16669 1.66666ZM9.16669 15C12.3892 15 15 12.3892 15 9.16666C15 5.94333 12.3892 3.33333 9.16669 3.33333C5.94335 3.33333 3.33335 5.94333 3.33335 9.16666C3.33335 12.3892 5.94335 15 9.16669 15ZM16.2375 15.0592L18.595 17.4158L17.4159 18.595L15.0592 16.2375L16.2375 15.0592V15.0592Z" fill="#242424"/>
</svg>
